<svg width="42" height="47" viewBox="0 0 42 47" fill="none" xmlns="http://www.w3.org/2000/svg">
<mask id="mask0_1292_819" style="mask-type:luminance" maskUnits="userSpaceOnUse" x="0" y="0" width="42" height="47">
<path d="M1.65786 23.1067L5.02572 25.0478V33.2913L17.0687 40.2285L27.4955 34.2177V44.2566L23.8148 42.1385L17.0739 46.026L16.1876 45.516C13.4506 43.9443 3.98825 38.4955 0.432712 36.4347L0 36.1848V22.1543L1.65786 23.1067ZM29.6851 41.2954V37.413L36.8379 33.2913L36.8327 19.4065L26.4059 13.4008L35.1175 8.37877V12.6202L41.8584 16.5077V17.5278C41.8584 20.6815 41.8636 31.5843 41.8584 35.6904V36.1901L29.6851 43.2053V41.2954ZM21.3437 16.794L24.211 18.4489L27.4955 20.338V24.1215V26.479L30.7174 28.3369C30.9624 28.238 31.2335 28.186 31.515 28.186C32.7037 28.186 33.6629 29.1488 33.6629 30.3301C33.6629 31.5167 32.6985 32.4743 31.515 32.4743C30.3264 32.4743 29.3671 31.5115 29.3671 30.3301C29.3671 30.0543 29.4192 29.7889 29.5131 29.5495L30.4567 30.0907L30.8685 29.3777L29.9562 28.8521L27.4903 27.4314L25.5978 26.3385L21.3437 23.8873V16.794ZM27.0784 28.1496L24.211 29.8045L20.9266 31.6988L17.6421 29.8045L14.7748 28.1496L20.9266 24.6055L27.0784 28.1496ZM14.3629 27.4314V24.1215V20.338L17.6474 18.4489L19.691 17.2676V13.5518C19.4825 13.3852 19.3 13.1823 19.1592 12.9377C18.5649 11.9124 18.9194 10.601 19.9465 10.0077C20.9735 9.41441 22.2873 9.7683 22.8816 10.7935C23.4759 11.8188 23.1214 13.1302 22.0944 13.7235C21.8546 13.864 21.5991 13.9473 21.3384 13.9889V12.9064H20.5095V13.9577V16.7992V23.8873L14.3629 27.4314ZM11.141 28.3421L14.3629 26.4842V27.4314L12.8198 28.3213L11.897 28.8521L10.9846 29.3777L11.3965 30.0907L12.3401 29.5495C12.434 29.7941 12.4861 30.0543 12.4861 30.3301C12.4861 31.5167 11.5216 32.4743 10.3382 32.4743C9.14952 32.4743 8.19025 31.5115 8.19025 30.3301C8.19025 29.1436 9.15473 28.186 10.3382 28.186C10.6249 28.1912 10.8908 28.2432 11.141 28.3421ZM31.4472 7.97284L28.0794 9.91401L20.9266 5.79228L8.88364 12.7347V24.7512L0.177256 19.7291L3.8527 17.611V9.84116L4.73898 9.33114C7.4708 7.75427 16.9279 2.29506 20.4939 0.249802L20.9266 0L33.1051 7.01527L31.4472 7.97284Z" fill="white"/>
</mask>
<g mask="url(#mask0_1292_819)">
<path d="M41.8688 0H0V46.026H41.8688V0Z" fill="#0E59F2"/>
</g>
</svg>
