<svg xmlns="http://www.w3.org/2000/svg" width="1920" height="749" viewBox="0 0 1920 749" fill="none"><path d="M1620.39 81.3087C1757.71 6.35234 1932.19 119.192 1975.48 162.223L2074 748H-2.99316L-32 199.525C21.5208 134.84 111.953 58.7803 163.046 81.3087C203.245 99.0334 298.524 238.065 383.599 162.223C478.626 77.508 576.554 17.8595 631.658 49.0051C686.761 80.1507 784.086 181.006 854.276 179.169C922.025 177.396 993.723 71.1488 1030.25 49.0038C1154.91 -26.5691 1199.93 105.881 1244.07 133.919C1323.77 184.552 1478.98 158.499 1620.39 81.3087Z" fill="url(#paint0_linear_1566_4)" stroke="url(#paint1_linear_1566_4)"></path><path fill-rule="evenodd" clip-rule="evenodd" d="M223.15 5.75992C170.804 -1.80248 111.181 15.8424 56.4298 42.4225C2.05724 68.8189 -47.2312 103.891 -79.3413 131.261L-79.3741 131.505L-82.9185 129.056L-82.5211 128.717C-50.2141 101.093 -0.376228 65.5538 54.6828 38.8241C109.692 12.1186 170.196 -5.93191 223.722 1.80102C262.424 7.39244 290.777 28.0916 313.087 54.7786C335.357 81.4173 351.696 114.133 366.362 143.896L367.521 146.249C374.443 160.301 381.005 173.624 387.693 185.354C394.756 197.745 401.891 208.231 409.62 215.842C417.33 223.434 425.533 228.068 434.766 228.974C444.011 229.88 454.61 227.08 467.166 219.161C495.331 201.398 520.515 183.298 544 166.419L544.908 165.766C568.63 148.717 590.661 132.915 612.22 120.082C655.39 94.3848 696.922 80.4375 746.985 92.023C794.343 102.982 824.215 127.354 851.357 149.499C852.8 150.676 854.235 151.847 855.664 153.009C884.009 176.053 910.089 195.611 951.538 194.844C991.573 194.103 1016.58 176.142 1045.08 152.323C1048.05 149.836 1051.07 147.286 1054.13 144.688C1080.48 122.392 1111.06 96.5087 1158.95 75.9667C1234.31 43.6482 1293.52 42.3659 1338 52.8451C1382.47 63.3184 1412.04 85.4976 1428.2 99.8153C1433.5 104.508 1438.56 109.013 1443.41 113.332C1465.2 132.723 1482.78 148.367 1498.6 160.411C1517.9 175.114 1534.4 184.31 1552.46 188.338C1570.51 192.364 1590.32 191.271 1616.32 185.023C1642.35 178.77 1674.42 167.392 1716.96 150.964C1799.64 119.038 1841.11 117.359 1868.55 128.842C1882.25 134.577 1892.27 143.527 1902.03 153.176C1903.7 154.831 1905.36 156.505 1907.04 158.187C1915.16 166.361 1923.5 174.748 1934.15 182.24L1935 182.837V183.799L1931 186.394V184.909C1920.43 177.349 1912.05 168.911 1904.13 160.941C1902.48 159.276 1900.84 157.632 1899.21 156.02C1889.53 146.442 1879.96 137.956 1867 132.532C1841.11 121.698 1800.97 122.811 1718.4 154.695C1675.86 171.122 1643.57 182.591 1617.26 188.913C1590.93 195.24 1570.45 196.449 1551.59 192.242C1532.73 188.035 1515.69 178.461 1496.17 163.593C1480.22 151.448 1462.5 135.675 1440.71 116.279L1440.71 116.276C1435.86 111.966 1430.82 107.477 1425.55 102.81C1409.68 88.7497 1380.68 67.008 1337.09 56.7385C1293.52 46.4747 1235.18 47.6274 1160.53 79.6429C1113.21 99.9382 1083.06 125.455 1056.72 147.742L1056.68 147.776C1053.62 150.363 1050.62 152.906 1047.64 155.392C1019.02 179.315 993.099 198.075 951.612 198.843C908.599 199.64 881.521 179.185 853.141 156.113C852.223 155.366 851.303 154.617 850.38 153.865L848.917 152.671C821.746 130.508 792.516 106.665 746.083 95.92C697.424 84.6594 656.979 98.0944 614.266 123.52C592.883 136.248 570.996 151.943 547.242 169.014L546.302 169.69L546.3 169.692C522.834 186.557 497.567 204.717 469.3 222.544C456.264 230.766 444.779 233.975 434.375 232.955C423.961 231.934 414.952 226.705 406.814 218.692C398.695 210.698 391.346 199.838 384.218 187.335C377.467 175.493 370.852 162.065 363.948 148.047L362.774 145.664C348.078 115.84 331.933 83.5576 310.018 57.3442C288.144 31.1791 260.611 11.1721 223.15 5.75992Z" fill="#0E59F2"></path><defs><linearGradient id="paint0_linear_1566_4" x1="864.213" y1="92.3054" x2="926.353" y2="611.453" gradientUnits="userSpaceOnUse"><stop stop-color="#F5F9FF"></stop><stop offset="1" stop-color="white"></stop></linearGradient><linearGradient id="paint1_linear_1566_4" x1="864.213" y1="92.3054" x2="864.213" y2="782.823" gradientUnits="userSpaceOnUse"><stop stop-color="#D9E5FF"></stop><stop offset="1" stop-color="white" stop-opacity="0"></stop></linearGradient></defs></svg>